<svg xmlns="http://www.w3.org/2000/svg" enable-background="new 0 0 256 256" viewBox="0 0 256 256" id="good-rating"><path fill="#231f20" d="M220,202h-16c-3.3,0-6-2.7-6-6v-56c0,0,0,0,0,0v-8c0-3.3,2.7-6,6-6h16c1.1,0,2-0.9,2-2s-0.9-2-2-2h-16
		c-5.5,0-10,4.5-10,10v5.1l-24.9-9.9c-7.4-2.9-13.4-8.8-16.5-16.1l-14.8-34.8c-2.4-5.7-3.6-11.8-3.7-18v-2.3
		c0-7.7-6.2-13.9-13.9-13.9c0,0,0,0,0,0c-7.6,0-13.8,6.1-13.9,13.7l-0.3,17.6c-0.1,7.3,1.4,14.7,4.4,21.3l4.9,11
		c0.7,1.5,0.7,3.1,0.1,4.6c-0.6,1.5-1.7,2.7-3.2,3.3c-0.8,0.3-1.6,0.5-2.4,0.5H56c-7.7,0-14,6.3-14,14c0,4,1.7,7.6,4.3,10.1
		C39.4,138.9,34,144.8,34,152s5.4,13.1,12.3,13.9C43.7,168.4,42,172,42,176c0,7.2,5.4,13.1,12.3,13.9C51.7,192.4,50,196,50,200
		c0,7.7,6.3,14,14,14h91.1c6.3,0,11.9-3.5,14.7-9.1c2.1-4.3,6.4-6.9,11.2-6.9h13.3c0.9,4.6,5,8,9.8,8h16c1.1,0,2-0.9,2-2
		S221.1,202,220,202z M166.2,203.1c-2.1,4.3-6.4,6.9-11.2,6.9H64c-5.5,0-10-4.5-10-10s4.5-10,10-10h12h8c1.1,0,2-0.9,2-2s-0.9-2-2-2
		h-8H64h-8c-5.5,0-10-4.5-10-10s4.5-10,10-10h12h8c1.1,0,2-0.9,2-2s-0.9-2-2-2h-8H56h-8c-5.5,0-10-4.5-10-10s4.5-10,10-10h8h12
		c1.1,0,2-0.9,2-2s-0.9-2-2-2H56c-5.5,0-10-4.5-10-10c0-5.5,4.5-10,10-10h54.1c1.4,0,2.8-0.3,4-0.9c2.4-1.1,4.3-3.1,5.3-5.5
		c1-2.5,0.9-5.2-0.2-7.7l-4.9-11c-2.8-6.1-4.2-12.9-4.1-19.6l0.3-17.6c0.1-5.4,4.5-9.8,9.9-9.8c0,0,0,0,0,0c5.5,0,9.9,4.4,9.9,9.9
		v2.3c0,6.7,1.3,13.3,4,19.5l14.8,34.8c3.5,8.3,10.3,14.9,18.7,18.3l26.4,10.5V194h-13.1C174.7,194,169,197.5,166.2,203.1z"></path><path fill="#231f20" d="M162 84c0 1.1.9 2 2 2h17c1.1 0 2-.9 2-2s-.9-2-2-2h-17C162.9 82 162 82.9 162 84zM156 62c.3 0 .6-.1.8-.2l17-8c1-.5 1.4-1.7 1-2.7-.5-1-1.7-1.4-2.7-1l-17 8c-1 .5-1.4 1.7-1 2.7C154.5 61.6 155.2 62 156 62zM67 86h17c1.1 0 2-.9 2-2s-.9-2-2-2H67c-1.1 0-2 .9-2 2S65.9 86 67 86zM74.1 53.8l17 8c.3.1.6.2.8.2.8 0 1.5-.4 1.8-1.2.5-1 0-2.2-1-2.7l-17-8c-1-.5-2.2 0-2.7 1C72.7 52.1 73.1 53.3 74.1 53.8z"></path><rect width="256" height="256" fill="none"></rect><rect width="256" height="256" fill="none"></rect></svg>