<svg xmlns="http://www.w3.org/2000/svg" width="32" height="32" viewBox="0 0 8.467 8.467" id="medal"><g transform="translate(1609.451 -213.506) scale(.26458)"><path style="line-height:normal;font-variant-ligatures:normal;font-variant-position:normal;font-variant-caps:normal;font-variant-numeric:normal;font-variant-alternates:normal;font-feature-settings:normal;text-indent:0;text-align:start;text-decoration-line:none;text-decoration-style:solid;text-decoration-color:#000;text-transform:none;text-orientation:mixed;shape-padding:0;isolation:auto;mix-blend-mode:normal" d="M-6059.0742 807.21094a.50004997.50004997 0 0 0-.5039.54492l.066.86719a.50045241.50045241 0 1 0 .998-.0762l-.066-.86719a.50004997.50004997 0 0 0-.4941-.46875zM-6059.0977 810.02539a.50005.50005 0 0 0-.4902.45899l-.088.89062a.50053406.50053406 0 1 0 .9961.0996l.088-.89258a.50005.50005 0 0 0-.5059-.55664zM-6057.2637 809.07031a.50005.50005 0 0 0-.035.002l-.8321.0664a.50005.50005 0 1 0 .078.9961l.8339-.0645a.50050599.50050599 0 0 0-.045-1zM-6060.8438 809.01562a.50005.50005 0 1 0 0 1h.8555a.50005.50005 0 1 0 0-1zM-6054.7344 814.0957a.50004997.50004997 0 0 0-.5019.54492l.066.86524a.50004997.50004997 0 1 0 .9961-.0742l-.065-.86719a.50004997.50004997 0 0 0-.4961-.46875zM-6054.7559 816.91016a.50005.50005 0 0 0-.4902.45703l-.088.89258a.50005.50005 0 1 0 .9942.0977l.088-.89258a.50005.50005 0 0 0-.5039-.55468zM-6052.9219 815.95508a.50005.50005 0 0 0-.035.002l-.834.0644a.50062956.50062956 0 1 0 .08.99805l.832-.0664a.50005.50005 0 0 0-.043-.99804zM-6056.502 815.90039a.50005.50005 0 1 0 0 1h.8536a.50005.50005 0 1 0 0-1zM-6079.2305 821.22656a.50004997.50004997 0 0 0-.5019.54492l.066.86719a.50004997.50004997 0 1 0 .9961-.0762l-.065-.86719a.50004997.50004997 0 0 0-.4961-.46875zM-6079.252 824.04102a.50005.50005 0 0 0-.4902.45703l-.088.89257a.50005.50005 0 1 0 .9942.0996l.088-.89257a.50005.50005 0 0 0-.504-.55664zM-6077.418 823.08594a.50005.50005 0 0 0-.035.002l-.834.0664a.50005.50005 0 1 0 .08.99609l.832-.0644a.50046204.50046204 0 0 0-.043-1zM-6080.998 823.03125a.50005.50005 0 1 0 0 1h.8535a.50005.50005 0 1 0 0-1z" color="#000" font-family="sans-serif" font-weight="400" overflow="visible"></path><path d="M-6076.9983 819.73824c.2519 0 .5471.2902.5274.5414-.02.2537-.3581.4791-.6117.457-.2214-.019-.4633-.263-.4571-.4851.01-.2487.2928-.5183.5414-.5133zM-6079.3549 817.07157c.2519 0 .5471.2902.5274.5414-.02.2537-.3581.4791-.6117.457-.2214-.019-.4633-.263-.4571-.4851.01-.2487.2928-.5183.5414-.5133zM-6061.0386 824.18856c.2519 0 .5471.2902.5274.5414-.02.2537-.3581.4791-.6117.457-.2214-.019-.4633-.263-.4571-.4851.01-.2487.2928-.5183.5414-.5133zM-6055.9079 820.41732c.2519 0 .5471.2902.5274.5414-.02.2537-.3581.4791-.6117.457-.2214-.019-.4633-.263-.4571-.4851.01-.2487.2928-.5183.5414-.5133zM-6056.785 812.48953c.2519 0 .5471.2902.5274.5414-.02.2537-.3581.4791-.6117.457-.2214-.019-.4633-.263-.4571-.4851.01-.2487.2928-.5183.5414-.5133z"></path><path style="line-height:normal;font-variant-ligatures:normal;font-variant-position:normal;font-variant-caps:normal;font-variant-numeric:normal;font-variant-alternates:normal;font-feature-settings:normal;text-indent:0;text-align:start;text-decoration-line:none;text-decoration-style:solid;text-decoration-color:#000;text-transform:none;text-orientation:mixed;shape-padding:0;isolation:auto;mix-blend-mode:normal" d="m -6075.3203,807.89453 a 0.50005,0.50005 0 0 0 -0.4785,0.5332 l 0.6211,8.92969 a 0.50005,0.50005 0 0 0 0.092,0.25586 l 2.2929,3.22461 a 0.50005,0.50005 0 0 0 0.4141,0.21094 l 5.3945,-0.0625 a 0.50005,0.50005 0 0 0 0.4043,-0.21289 l 2.7285,-3.90821 a 0.50005,0.50005 0 0 0 0.09,-0.29492 l -0.1231,-7.56445 a 0.50005,0.50005 0 0 0 -0.4707,-0.49219 l -10.916,-0.61914 a 0.50005,0.50005 0 0 0 -0.049,0 z m 0.5586,1.0293 9.8847,0.5625 0.1133,6.93945 -2.4883,3.5625 -4.8769,0.0566 -2.0606,-2.89648 z" color="#000" font-family="sans-serif" font-weight="400" overflow="visible"></path><path style="line-height:normal;font-variant-ligatures:normal;font-variant-position:normal;font-variant-caps:normal;font-variant-numeric:normal;font-variant-alternates:normal;font-feature-settings:normal;text-indent:0;text-align:start;text-decoration-line:none;text-decoration-style:solid;text-decoration-color:#000;text-transform:none;text-orientation:mixed;shape-padding:0;isolation:auto;mix-blend-mode:normal" d="M-6072.2031 808.63867l-.061 11.84571 1 .004.061-11.84375zM-6070.0938 808.81641l-.248 11.7207 1 .0215.248-11.7207zM-6066.8613 808.87695l-1 .0254.3105 11.72071 1-.0254z" color="#000" font-family="sans-serif" font-weight="400" overflow="visible"></path><path style="line-height:normal;font-variant-ligatures:normal;font-variant-position:normal;font-variant-caps:normal;font-variant-numeric:normal;font-variant-alternates:normal;font-feature-settings:normal;text-indent:0;text-align:start;text-decoration-line:none;text-decoration-style:solid;text-decoration-color:#000;text-transform:none;text-orientation:mixed;shape-padding:0;isolation:auto;mix-blend-mode:normal" d="m -6068.0371,820.22656 -1.3262,2.17188 -0.7246,0.0684 -0.9414,-2.1211 -0.9141,0.4043 1.2325,2.7793 1.9394,-0.18164 1.5879,-2.60157 z" color="#000" font-family="sans-serif" font-weight="400" overflow="visible"></path><path style="line-height:normal;font-variant-ligatures:normal;font-variant-position:normal;font-variant-caps:normal;font-variant-numeric:normal;font-variant-alternates:normal;font-feature-settings:normal;text-indent:0;text-align:start;text-decoration-line:none;text-decoration-style:solid;text-decoration-color:#000;text-transform:none;text-orientation:mixed;shape-padding:0;isolation:auto;mix-blend-mode:normal" d="m -6069.707,822.56055 a 0.50005,0.50005 0 0 0 -0.4785,0.32226 l -1.9961,5.28125 -5.5704,0.38086 a 0.50005,0.50005 0 0 0 -0.2812,0.88672 l 4.2773,3.48633 -1.3457,5.14648 a 0.50005,0.50005 0 0 0 0.7696,0.53711 l 4.5586,-3.16406 3.8632,3.14258 a 0.50005,0.50005 0 0 0 0.8125,-0.44336 l -0.6211,-5.5625 3.5762,-2.95899 a 0.50005,0.50005 0 0 0 -0.2695,-0.88281 l -5.4824,-0.55273 -1.3399,-5.24414 a 0.50005,0.50005 0 0 0 -0.4726,-0.375 z m -0.1035,2.1582 1.0351,4.04687 a 0.50005,0.50005 0 0 0 0.4336,0.37305 l 4.6387,0.46875 -2.8614,2.36914 a 0.50005,0.50005 0 0 0 -0.1777,0.44141 l 0.5156,4.61523 -3.207,-2.60937 a 0.50005,0.50005 0 0 0 -0.6016,-0.0234 l -3.7558,2.60938 1.084,-4.14844 a 0.50005,0.50005 0 0 0 -0.168,-0.51367 l -3.5449,-2.89063 4.6269,-0.31641 a 0.50005,0.50005 0 0 0 0.4336,-0.32226 z" color="#000" font-family="sans-serif" font-weight="400" overflow="visible"></path><path style="line-height:normal;font-variant-ligatures:normal;font-variant-position:normal;font-variant-caps:normal;font-variant-numeric:normal;font-variant-alternates:normal;font-feature-settings:normal;text-indent:0;text-align:start;text-decoration-line:none;text-decoration-style:solid;text-decoration-color:#000;text-transform:none;text-orientation:mixed;shape-padding:0;isolation:auto;mix-blend-mode:normal" d="m -6069.6562,829.44336 c -0.4933,1.5e-4 -0.9186,0.23914 -1.2481,0.55859 -0.3295,0.31945 -0.5862,0.74233 -0.5859,1.24414 2e-4,0.47987 0.2451,0.87746 0.5566,1.17774 0.3115,0.30027 0.711,0.52559 1.1777,0.53125 v 0 c 0.4891,0.006 0.9162,-0.22081 1.2539,-0.53125 0.3377,-0.31044 0.6071,-0.72805 0.6152,-1.23242 v -0.002 c 0.01,-0.49122 -0.2455,-0.89928 -0.5644,-1.20703 -0.319,-0.30774 -0.7284,-0.53921 -1.207,-0.53906 z m 0,1 c 0.1134,-4e-5 0.3432,0.0934 0.5136,0.25781 0.1705,0.16445 0.259,0.37576 0.2578,0.47656 0,0.11749 -0.1049,0.33868 -0.291,0.50977 -0.1861,0.1711 -0.4336,0.26852 -0.5664,0.26758 -0.1107,-10e-4 -0.3319,-0.0917 -0.4961,-0.25 -0.1642,-0.15827 -0.2519,-0.36144 -0.2519,-0.45899 -1e-4,-0.11946 0.1013,-0.34904 0.2832,-0.52539 0.1819,-0.17635 0.4227,-0.2773 0.5508,-0.27734 z" color="#000" font-family="sans-serif" font-weight="400" overflow="visible"></path><path style="line-height:normal;font-variant-ligatures:normal;font-variant-position:normal;font-variant-caps:normal;font-variant-numeric:normal;font-variant-alternates:normal;font-feature-settings:normal;text-indent:0;text-align:start;text-decoration-line:none;text-decoration-style:solid;text-decoration-color:#000;text-transform:none;text-orientation:mixed;shape-padding:0;isolation:auto;mix-blend-mode:normal" d="M-6069.4668 824.12695l-.998.0371.2168 5.76758.998-.0371zM-6077.0664 828.86914l-.2481.9707 6.2012 1.58008.2481-.96875zM-6063.0488 828.74609l-5.6114 1.39453.2403.97071 5.6133-1.39649zM-6070.5801 831.93555l-3.8769 5.08398.7949.60742 3.8769-5.08593zM-6068.5996 831.83984l-.8731.48633 2.9766 5.33399.8731-.48828z" color="#000" font-family="sans-serif" font-weight="400" overflow="visible"></path></g></svg>